<svg width="1069" height="593" viewBox="0 0 1069 593" fill="none" xmlns="http://www.w3.org/2000/svg">
<rect width="1069" height="593" fill="#F2F2F2"/>
<g filter="url(#filter0_d)">
<path d="M567.152 348.079C542.06 408.426 543.331 446.663 577.601 487.434C613.035 463.921 629.414 441.667 639.344 385.174C654.764 332.646 691.572 299.378 724.835 272.888C665.093 252.072 618.409 272.295 567.152 348.079Z" stroke="black"/>
<path d="M665.941 399.209C686.779 332.957 706.181 290.446 739.083 287.926C766.404 321.121 767.535 370.995 739.083 444.324C689.875 502.614 651.361 505.669 603.248 495.454C634.395 465.651 655.881 446.734 665.941 399.209Z" stroke="black"/>
<path d="M513.957 281.911L538.655 323.015C587.088 293.683 610.085 267.99 622.246 201.707C621.641 149.813 611.628 117.915 577.601 94.4336C550.304 117.94 536.129 136.389 532.006 169.625C537.861 221.175 532.758 248.066 513.957 281.911Z" stroke="black"/>
<path d="M505.408 169.625C515.654 133.07 535.891 108.008 554.803 85.4107C515.31 74.3366 485.672 89.9338 446.515 136.541C421.606 178.121 420.871 202.979 426.567 229.778C458.08 233.856 476.69 240.706 505.408 266.873C512.931 240.632 505.131 216.19 505.408 169.625Z" stroke="black"/>
<path d="M436.066 348.079C396.905 334.041 375.712 321.886 352.475 266.873C393.52 240.24 427.198 237.282 493.06 281.911C540.564 350.057 546.287 387.844 521.557 427.281C492.964 384.914 470.682 359.784 436.066 348.079Z" stroke="black"/>
<path d="M414.218 379.158C374.665 353.04 350.75 316.806 330.627 281.911C317.82 298.289 314.943 323.124 318.279 353.092C327.55 395.327 340.851 422.507 378.122 451.342C440.513 488.339 473.467 481.498 505.408 451.342C479.219 401.053 458.174 383.033 414.218 379.158Z" stroke="black"/>
</g>
<path d="M254 181C222.74 221.406 176.694 330.174 242.594 442" stroke="black" stroke-width="12"/>
<path d="M822 181C849.921 219.04 889.011 326.097 822 450" stroke="black" stroke-width="12"/>
<path d="M194 57C129.742 142.998 37.8919 354.996 184.55 515" stroke="black" stroke-width="12"/>
<path d="M92 5C27.1024 112.163 -63.7543 378.991 92 589" stroke="black" stroke-width="12"/>
<path d="M882.298 68C940.954 126.282 1020.21 301.477 868 536" stroke="black" stroke-width="12"/>
<path d="M948 5C1032.72 82.5896 1153.16 308.015 957.114 589" stroke="black" stroke-width="12"/>
<defs>
<filter id="filter0_d" x="312.5" y="81.5" width="452" height="427" filterUnits="userSpaceOnUse" color-interpolation-filters="sRGB">
<feFlood flood-opacity="0" result="BackgroundImageFix"/>
<feColorMatrix in="SourceAlpha" type="matrix" values="0 0 0 0 0 0 0 0 0 0 0 0 0 0 0 0 0 0 127 0"/>
<feOffset dy="4"/>
<feGaussianBlur stdDeviation="2"/>
<feColorMatrix type="matrix" values="0 0 0 0 0 0 0 0 0 0 0 0 0 0 0 0 0 0 0.25 0"/>
<feBlend mode="normal" in2="BackgroundImageFix" result="effect1_dropShadow"/>
<feBlend mode="normal" in="SourceGraphic" in2="effect1_dropShadow" result="shape"/>
</filter>
</defs>
</svg>
